<svg id="Layer_1" xmlns="http://www.w3.org/2000/svg" viewBox="0 0 1922.55 1083.26">
    <defs>
        <style>
            .cls-1{fill:#1a181a;stroke:#1a181a;}.cls-2{fill:#181618;stroke:#181618;}.cls-3{fill:#1c1a1c;stroke:#1c1a1c;}.cls-4{fill:#373537;stroke:#373537;}.cls-5{fill:#323032;stroke:#323032;}.cls-6{fill:#1f1d1f;stroke:#1f1d1f;}.cls-7{fill:#1e1c1e;stroke:#1e1c1e;}.cls-8{fill:#252325;stroke:#252325;}.cls-9{fill:#211f21;stroke:#211f21;}.cls-10{fill:#2a282a;stroke:#2a282a;}.cls-11{fill:#3b393b;stroke:#3b393b;}.cls-12{fill:#383638;stroke:#383638;}.cls-13{fill:#484648;stroke:#484648;}.cls-14{fill:#333133;stroke:#333133;}.cls-15{fill:#353335;stroke:#353335;}.cls-16{fill:#312f31;stroke:#312f31;}.cls-17{fill:#434143;stroke:#434143;}.cls-18{fill:#343234;stroke:#343234;}.cls-19{fill:#292729;stroke:#292729;}.cls-20{fill:#464446;stroke:#464446;}.cls-21{fill:#4a484a;stroke:#4a484a;}.cls-22{fill:#3e3c3e;stroke:#3e3c3e;}.cls-23{fill:#3a383a;stroke:#3a383a;}.cls-24{fill:#3d3b3d;stroke:#3d3b3d;}.cls-25{fill:#3c3a3c;stroke:#3c3a3c;}.cls-26{fill:#3f3d3f;stroke:#3f3d3f;}.cls-27{fill:#403e40;stroke:#403e40;}.cls-28{fill:#242224;stroke:#242224;}.cls-29{fill:#413f41;stroke:#413f41;}.cls-30{fill:#454345;stroke:#454345;}.cls-31{fill:#444244;stroke:#444244;}.cls-32{fill:#424042;stroke:#424042;}.cls-33{fill:#525052;stroke:#525052;}.cls-34{fill:#4e4c4e;stroke:#4e4c4e;}.cls-35{fill:#363436;stroke:#363436;}.cls-36{fill:#585658;stroke:#585658;}.cls-37{fill:#1d1b1d;stroke:#1d1b1d;}.cls-38{fill:#222022;stroke:#222022;}.cls-39{fill:#575557;stroke:#575557;}.cls-40{fill:#474547;stroke:#474547;}.cls-41{fill:#504e50;stroke:#504e50;}.cls-42{fill:#2d2b2d;stroke:#2d2b2d;}.cls-43{fill:#555355;stroke:#555355;}.cls-44{fill:#2e2c2e;stroke:#2e2c2e;}.cls-45{fill:#262426;stroke:#262426;}.cls-46{fill:#5f5d5f;stroke:#5f5d5f;}.cls-47{fill:#4b494b;stroke:#4b494b;}.cls-48{fill:#494749;stroke:#494749;}.cls-49{fill:#514f51;stroke:#514f51;}.cls-50{fill:#4c4a4c;stroke:#4c4a4c;}.cls-51{fill:#171517;stroke:#171517;}.cls-52{fill:#545254;stroke:#545254;}.cls-53{fill:#646264;stroke:#646264;}.cls-54{fill:#4d4b4d;stroke:#4d4b4d;}.cls-55{fill:#2c2a2c;stroke:#2c2a2c;}.cls-56{fill:#535153;stroke:#535153;}.cls-57{fill:#696769;stroke:#696769;}.cls-58{fill:#4f4d4f;stroke:#4f4d4f;}.cls-59{fill:#595759;stroke:#595759;}.cls-60{fill:#5a585a;stroke:#5a585a;}.cls-61{fill:#656365;stroke:#656365;}.cls-62{fill:#5b595b;stroke:#5b595b;}.cls-63{fill:#676567;stroke:#676567;}.cls-64{fill:#828082;stroke:#828082;}.cls-65{fill:#626062;stroke:#626062;}.cls-66{fill:#6b696b;stroke:#6b696b;}.cls-67{fill:#636163;stroke:#636163;}.cls-68{fill:#5c5a5c;stroke:#5c5a5c;}.cls-69{fill:#727072;stroke:#727072;}.cls-70{fill:#737173;stroke:#737173;}.cls-71{fill:#787678;stroke:#787678;}.cls-72{fill:#6a686a;stroke:#6a686a;}.cls-73{fill:#5e5c5e;stroke:#5e5c5e;}.cls-74{fill:#6e6c6e;stroke:#6e6c6e;}.cls-75{fill:#797779;stroke:#797779;}.cls-76{fill:#6f6d6f;stroke:#6f6d6f;}.cls-77{fill:#848284;stroke:#848284;}.cls-78{fill:#666466;stroke:#666466;}.cls-79{fill:#605e60;stroke:#605e60;}.cls-80{fill:#7c7a7c;stroke:#7c7a7c;}.cls-81{fill:#8d8b8d;stroke:#8d8b8d;}.cls-82{fill:#7f7d7f;stroke:#7f7d7f;}.cls-83{fill:#706e70;stroke:#706e70;}.cls-84{fill:#686668;stroke:#686668;}.cls-85{fill:#565456;stroke:#565456;}.cls-86{fill:#7e7c7e;stroke:#7e7c7e;}.cls-87{fill:#868486;stroke:#868486;}.cls-88{fill:#7d7b7d;stroke:#7d7b7d;}.cls-89{fill:#807e80;stroke:#807e80;}.cls-90{fill:#858385;stroke:#858385;}.cls-91{fill:#777577;stroke:#777577;}.cls-92{fill:#838183;stroke:#838183;}.cls-93{fill:#817f81;stroke:#817f81;}.cls-94{fill:#615f61;stroke:#615f61;}.cls-95{fill:#716f71;stroke:#716f71;}.cls-96{fill:#6d6b6d;stroke:#6d6b6d;}.cls-97{fill:#878587;stroke:#878587;}.cls-98{fill:#8c8a8c;stroke:#8c8a8c;}.cls-99{fill:#8a888a;stroke:#8a888a;}.cls-100{fill:#9a989a;stroke:#9a989a;}.cls-101{fill:#929092;stroke:#929092;}.cls-102{fill:#939193;stroke:#939193;}.cls-103{fill:#8e8c8e;stroke:#8e8c8e;}.cls-104{fill:#bbb9bb;stroke:#bbb9bb;}.cls-105{fill:#757375;stroke:#757375;}.cls-106{fill:#767476;stroke:#767476;}.cls-107{fill:#acaaac;stroke:#acaaac;}.cls-108{fill:#bcbabc;stroke:#bcbabc;}.cls-109{fill:#918f91;stroke:#918f91;}.cls-110{fill:#989698;stroke:#989698;}.cls-111{fill:#b0aeb0;stroke:#b0aeb0;}.cls-112{fill:#959395;stroke:#959395;}.cls-113{fill:#9b999b;stroke:#9b999b;}.cls-114{fill:#8b898b;stroke:#8b898b;}.cls-115{fill:#bdbbbd;stroke:#bdbbbd;}.cls-116{fill:#9e9c9e;stroke:#9e9c9e;}.cls-117{fill:#949294;stroke:#949294;}.cls-118{fill:#b5b3b5;stroke:#b5b3b5;}.cls-119{fill:#888688;stroke:#888688;}.cls-120{fill:#9f9d9f;stroke:#9f9d9f;}.cls-121{fill:#b3b1b3;stroke:#b3b1b3;}.cls-122{fill:#a8a6a8;stroke:#a8a6a8;}.cls-123{fill:#7a787a;stroke:#7a787a;}.cls-124{fill:#a09ea0;stroke:#a09ea0;}.cls-125{fill:#898789;stroke:#898789;}.cls-126{fill:#c1bfc1;stroke:#c1bfc1;}.cls-127{fill:#9d9b9d;stroke:#9d9b9d;}.cls-128{fill:#c4c2c4;stroke:#c4c2c4;}.cls-129{fill:#a5a3a5;stroke:#a5a3a5;}.cls-130{fill:#a4a2a4;stroke:#a4a2a4;}.cls-131{fill:#979597;stroke:#979597;}.cls-132{fill:#b2b0b2;stroke:#b2b0b2;}.cls-133{fill:#aeacae;stroke:#aeacae;}.cls-134{fill:#a7a5a7;stroke:#a7a5a7;}.cls-135{fill:#b4b2b4;stroke:#b4b2b4;}.cls-136{fill:#aaa8aa;stroke:#aaa8aa;}.cls-137{fill:#b9b7b9;stroke:#b9b7b9;}.cls-138{fill:#b1afb1;stroke:#b1afb1;}.cls-139{fill:#8f8d8f;stroke:#8f8d8f;}.cls-140{fill:#a2a0a2;stroke:#a2a0a2;}.cls-141{fill:#bebcbe;stroke:#bebcbe;}.cls-142{fill:#a6a4a6;stroke:#a6a4a6;}.cls-143{fill:#9c9a9c;stroke:#9c9a9c;}.cls-144{fill:#a9a7a9;stroke:#a9a7a9;}.cls-145{fill:#bab8ba;stroke:#bab8ba;}.cls-146{fill:#a19fa1;stroke:#a19fa1;}.cls-147{fill:#c0bec0;stroke:#c0bec0;}.cls-148{fill:#adabad;stroke:#adabad;}.cls-149{fill:#cbc9cb;stroke:#cbc9cb;}.cls-150{fill:#b7b5b7;stroke:#b7b5b7;}.cls-151{fill:#c5c3c5;stroke:#c5c3c5;}.cls-152{fill:#c3c1c3;stroke:#c3c1c3;}.cls-153{fill:#d8d6d8;stroke:#d8d6d8;}.cls-154{fill:#d5d3d5;stroke:#d5d3d5;}.cls-155{fill:#bfbdbf;stroke:#bfbdbf;}.cls-156{fill:#b8b6b8;stroke:#b8b6b8;}.cls-157{fill:#c6c4c6;stroke:#c6c4c6;}.cls-158{fill:#cfcdcf;stroke:#cfcdcf;}.cls-159{fill:#afadaf;stroke:#afadaf;}.cls-160{fill:#d1cfd1;stroke:#d1cfd1;}.cls-161{fill:#dcdadc;stroke:#dcdadc;}.cls-162{fill:#e8e6e8;stroke:#e8e6e8;}.cls-163{fill:#cac8ca;stroke:#cac8ca;}.cls-164{fill:#d2d0d2;stroke:#d2d0d2;}.cls-165{fill:#dfdddf;stroke:#dfdddf;}.cls-166{fill:#cdcbcd;stroke:#cdcbcd;}.cls-167{fill:#d6d4d6;stroke:#d6d4d6;}.cls-168{fill:#ceccce;stroke:#ceccce;}.cls-169{fill:#d0ced0;stroke:#d0ced0;}.cls-170{fill:#d3d1d3;stroke:#d3d1d3;}.cls-171{fill:#dddbdd;stroke:#dddbdd;}.cls-172{fill:#e2e0e2;stroke:#e2e0e2;}.cls-173{fill:#f7f5f7;stroke:#f7f5f7;}.cls-174{fill:#dedcde;stroke:#dedcde;}.cls-175{fill:#dad8da;stroke:#dad8da;}.cls-176{fill:#d7d5d7;stroke:#d7d5d7;}.cls-177{fill:#c7c5c7;stroke:#c7c5c7;}.cls-178{fill:#f1eff1;stroke:#f1eff1;}.cls-179{fill:#faf8fa;stroke:#faf8fa;}
        </style>
    </defs>
    <title>131250-dark-grey-polygon-background</title>
    <polygon class="cls-1" points="1921.09 995.38 1921.09 1081.38 1921.09 1081.38 1921.09 995.38"/>
    <polygon class="cls-2" points="1921.09 995.38 1921.09 1081.38 1822.09 1081.38 1921.09 995.38"/>
    <polygon class="cls-3" points="1921.09 1.38 1921.09 100.38 1822.09 1.38 1921.09 1.38"/>
    <polygon class="cls-1" points="1921.09 1081.38 1921.09 1081.38 1921.09 796.38 1921.09 1081.38"/>
    <polygon class="cls-4" points="1921.09 697.38 1921.09 796.38 1681.09 681.38 1921.09 697.38"/>
    <polygon class="cls-5" points="1921.09 597.38 1921.09 697.38 1681.09 681.38 1921.09 597.38"/>
    <polygon class="cls-6" points="1921.09 896.38 1921.09 995.38 1822.09 1081.38 1921.09 896.38"/>
    <polygon class="cls-1" points="1921.09 498.38 1921.09 597.38 1681.09 681.38 1921.09 498.38"/>
    <polygon class="cls-7" points="1921.09 896.38 1822.09 1081.38 1723.09 1081.38 1921.09 896.38"/>
    <polygon class="cls-8" points="1921.09 100.38 1921.09 199.38 1723.09 1.38 1921.09 100.38"/>
    <polygon class="cls-9" points="1822.09 1.38 1921.09 100.38 1723.09 1.38 1822.09 1.38"/>
    <polygon class="cls-10" points="1921.09 498.38 1681.09 681.38 1576.09 606.38 1921.09 498.38"/>
    <polygon class="cls-11" points="1681.09 681.38 1626.09 671.38 1576.09 606.38 1681.09 681.38"/>
    <polygon class="cls-12" points="1921.09 796.38 1921.09 896.38 1681.09 681.38 1921.09 796.38"/>
    <polygon class="cls-13" points="1626.09 671.38 1681.09 681.38 1536.09 746.38 1626.09 671.38"/>
    <polygon class="cls-14" points="1921.09 299.38 1921.09 398.38 1526.09 301.38 1921.09 299.38"/>
    <polygon class="cls-15" points="1921.09 199.38 1921.09 299.38 1526.09 301.38 1921.09 199.38"/>
    <polygon class="cls-16" points="1921.09 896.38 1723.09 1081.38 1681.09 681.38 1921.09 896.38"/>
    <polygon class="cls-17" points="1921.09 398.38 1576.09 606.38 1511.09 341.38 1921.09 398.38"/>
    <polygon class="cls-11" points="1526.09 301.38 1921.09 398.38 1511.09 341.38 1526.09 301.38"/>
    <polygon class="cls-18" points="1681.09 681.38 1723.09 1081.38 1511.09 811.38 1681.09 681.38"/>
    <polygon class="cls-4" points="1536.09 746.38 1681.09 681.38 1511.09 811.38 1536.09 746.38"/>
    <polygon class="cls-19" points="1723.09 1081.38 1623.09 1081.38 1511.09 811.38 1723.09 1081.38"/>
    <polygon class="cls-18" points="1723.09 1.38 1921.09 199.38 1526.09 301.38 1723.09 1.38"/>
    <polygon class="cls-15" points="1921.09 398.38 1921.09 498.38 1576.09 606.38 1921.09 398.38"/>
    <polygon class="cls-15" points="1623.09 1.38 1723.09 1.38 1526.09 301.38 1623.09 1.38"/>
    <polygon class="cls-20" points="1576.09 606.38 1626.09 671.38 1536.09 746.38 1576.09 606.38"/>
    <polygon class="cls-17" points="1526.09 301.38 1511.09 341.38 1476.09 306.38 1526.09 301.38"/>
    <polygon class="cls-18" points="1524.09 1.38 1623.09 1.38 1466.09 121.38 1524.09 1.38"/>
    <polygon class="cls-21" points="1576.09 606.38 1536.09 746.38 1486.09 726.38 1576.09 606.38"/>
    <polygon class="cls-22" points="1524.09 1.38 1466.09 121.38 1461.09 96.38 1524.09 1.38"/>
    <polygon class="cls-23" points="1466.09 121.38 1526.09 301.38 1466.09 226.38 1466.09 121.38"/>
    <polygon class="cls-24" points="1623.09 1.38 1526.09 301.38 1466.09 121.38 1623.09 1.38"/>
    <polygon class="cls-25" points="1536.09 746.38 1511.09 811.38 1486.09 726.38 1536.09 746.38"/>
    <polygon class="cls-26" points="1486.09 726.38 1511.09 811.38 1451.09 801.38 1486.09 726.38"/>
    <polygon class="cls-27" points="1526.09 301.38 1476.09 306.38 1466.09 226.38 1526.09 301.38"/>
    <polygon class="cls-25" points="1511.09 341.38 1576.09 606.38 1466.09 551.38 1511.09 341.38"/>
    <polygon class="cls-28" points="1623.09 1081.38 1524.09 1081.38 1511.09 811.38 1623.09 1081.38"/>
    <polygon class="cls-15" points="1524.09 1.38 1461.09 96.38 1424.09 1.38 1524.09 1.38"/>
    <polygon class="cls-29" points="1466.09 226.38 1476.09 306.38 1406.09 286.38 1466.09 226.38"/>
    <polygon class="cls-27" points="1576.09 606.38 1486.09 726.38 1466.09 551.38 1576.09 606.38"/>
    <polygon class="cls-30" points="1426.09 541.38 1466.09 551.38 1401.09 576.38 1426.09 541.38"/>
    <polygon class="cls-20" points="1461.09 96.38 1466.09 121.38 1381.09 131.38 1461.09 96.38"/>
    <polygon class="cls-31" points="1466.09 551.38 1486.09 726.38 1401.09 576.38 1466.09 551.38"/>
    <polygon class="cls-25" points="1381.09 131.38 1466.09 226.38 1366.09 156.38 1381.09 131.38"/>
    <polygon class="cls-32" points="1466.09 121.38 1466.09 226.38 1381.09 131.38 1466.09 121.38"/>
    <polygon class="cls-11" points="1511.09 341.38 1466.09 551.38 1426.09 541.38 1511.09 341.38"/>
    <polygon class="cls-11" points="1424.09 1.38 1461.09 96.38 1361.09 36.38 1424.09 1.38"/>
    <polygon class="cls-14" points="1511.09 341.38 1426.09 541.38 1356.09 481.38 1511.09 341.38"/>
    <polygon class="cls-33" points="1401.09 576.38 1486.09 726.38 1356.09 691.38 1401.09 576.38"/>
    <polygon class="cls-24" points="1486.09 726.38 1356.09 716.38 1356.09 691.38 1486.09 726.38"/>
    <polygon class="cls-26" points="1486.09 726.38 1451.09 801.38 1356.09 716.38 1486.09 726.38"/>
    <polygon class="cls-22" points="1466.09 226.38 1406.09 286.38 1346.09 231.38 1466.09 226.38"/>
    <polygon class="cls-24" points="1361.09 161.38 1466.09 226.38 1346.09 231.38 1361.09 161.38"/>
    <polygon class="cls-34" points="1401.09 576.38 1356.09 691.38 1346.09 601.38 1401.09 576.38"/>
    <polygon class="cls-25" points="1366.09 156.38 1466.09 226.38 1361.09 161.38 1366.09 156.38"/>
    <polygon class="cls-31" points="1461.09 96.38 1381.09 131.38 1361.09 36.38 1461.09 96.38"/>
    <polygon class="cls-9" points="1511.09 811.38 1524.09 1081.38 1424.09 1081.38 1511.09 811.38"/>
    <polygon class="cls-35" points="1424.09 1.38 1361.09 36.38 1325.09 1.38 1424.09 1.38"/>
    <polygon class="cls-36" points="1356.09 481.38 1401.09 576.38 1346.09 601.38 1356.09 481.38"/>
    <polygon class="cls-21" points="1426.09 541.38 1401.09 576.38 1356.09 481.38 1426.09 541.38"/>
    <polygon class="cls-37" points="1476.09 306.38 1511.09 341.38 1356.09 481.38 1476.09 306.38"/>
    <polygon class="cls-38" points="1406.09 286.38 1476.09 306.38 1356.09 481.38 1406.09 286.38"/>
    <polygon class="cls-5" points="1451.09 801.38 1511.09 811.38 1424.09 1081.38 1451.09 801.38"/>
    <polygon class="cls-39" points="1356.09 481.38 1346.09 601.38 1286.09 551.38 1356.09 481.38"/>
    <polygon class="cls-24" points="1361.09 161.38 1346.09 231.38 1281.09 176.38 1361.09 161.38"/>
    <polygon class="cls-26" points="1346.09 231.38 1406.09 286.38 1276.09 261.38 1346.09 231.38"/>
    <polygon class="cls-25" points="1325.09 1.38 1361.09 36.38 1261.09 56.38 1325.09 1.38"/>
    <polygon class="cls-13" points="1361.09 36.38 1381.09 131.38 1261.09 56.38 1361.09 36.38"/>
    <polygon class="cls-31" points="1361.09 161.38 1281.09 176.38 1261.09 56.38 1361.09 161.38"/>
    <polygon class="cls-13" points="1381.09 131.38 1366.09 156.38 1261.09 56.38 1381.09 131.38"/>
    <polygon class="cls-40" points="1366.09 156.38 1361.09 161.38 1261.09 56.38 1366.09 156.38"/>
    <polygon class="cls-26" points="1281.09 176.38 1346.09 231.38 1261.09 196.38 1281.09 176.38"/>
    <polygon class="cls-24" points="1346.09 231.38 1276.09 261.38 1261.09 196.38 1346.09 231.38"/>
    <polygon class="cls-25" points="1356.09 716.38 1451.09 801.38 1231.09 836.38 1356.09 716.38"/>
    <polygon class="cls-4" points="1325.09 1.38 1261.09 56.38 1225.09 1.38 1325.09 1.38"/>
    <polygon class="cls-41" points="1286.09 551.38 1346.09 601.38 1226.09 596.38 1286.09 551.38"/>
    <polygon class="cls-42" points="1451.09 801.38 1424.09 1081.38 1325.09 1081.38 1451.09 801.38"/>
    <polygon class="cls-43" points="1346.09 601.38 1356.09 691.38 1211.09 626.38 1346.09 601.38"/>
    <polygon class="cls-39" points="1226.09 596.38 1346.09 601.38 1211.09 626.38 1226.09 596.38"/>
    <polygon class="cls-24" points="1281.09 176.38 1261.09 196.38 1206.09 131.38 1281.09 176.38"/>
    <polygon class="cls-29" points="1261.09 56.38 1281.09 176.38 1206.09 131.38 1261.09 56.38"/>
    <polygon class="cls-44" points="1451.09 801.38 1325.09 1081.38 1231.09 836.38 1451.09 801.38"/>
    <polygon class="cls-45" points="1406.09 286.38 1356.09 481.38 1276.09 261.38 1406.09 286.38"/>
    <polygon class="cls-46" points="1226.09 596.38 1211.09 626.38 1196.09 606.38 1226.09 596.38"/>
    <polygon class="cls-47" points="1356.09 481.38 1286.09 551.38 1176.09 441.38 1356.09 481.38"/>
    <polygon class="cls-18" points="1276.09 261.38 1356.09 481.38 1171.09 416.38 1276.09 261.38"/>
    <polygon class="cls-40" points="1356.09 481.38 1176.09 441.38 1171.09 416.38 1356.09 481.38"/>
    <polygon class="cls-31" points="1356.09 691.38 1356.09 716.38 1171.09 711.38 1356.09 691.38"/>
    <polygon class="cls-48" points="1211.09 626.38 1356.09 691.38 1171.09 711.38 1211.09 626.38"/>
    <polygon class="cls-30" points="1356.09 716.38 1231.09 836.38 1171.09 711.38 1356.09 716.38"/>
    <polygon class="cls-34" points="1151.09 766.38 1231.09 836.38 1151.09 801.38 1151.09 766.38"/>
    <polygon class="cls-34" points="1171.09 711.38 1231.09 836.38 1151.09 766.38 1171.09 711.38"/>
    <polygon class="cls-41" points="1171.09 711.38 1151.09 766.38 1146.09 736.38 1171.09 711.38"/>
    <polygon class="cls-33" points="1286.09 551.38 1226.09 596.38 1176.09 441.38 1286.09 551.38"/>
    <polygon class="cls-22" points="1231.09 836.38 1325.09 1081.38 1225.09 1081.38 1231.09 836.38"/>
    <polygon class="cls-48" points="1225.09 1.38 1261.09 56.38 1206.09 131.38 1225.09 1.38"/>
    <polygon class="cls-4" points="1276.09 261.38 1171.09 416.38 1111.09 321.38 1276.09 261.38"/>
    <polygon class="cls-13" points="1225.09 1.38 1206.09 131.38 1106.09 31.38 1225.09 1.38"/>
    <polygon class="cls-11" points="1126.09 1.38 1225.09 1.38 1106.09 31.38 1126.09 1.38"/>
    <polygon class="cls-41" points="1171.09 711.38 1146.09 736.38 1111.09 681.38 1171.09 711.38"/>
    <polygon class="cls-13" points="1196.09 606.38 1211.09 626.38 1111.09 681.38 1196.09 606.38"/>
    <polygon class="cls-34" points="1211.09 626.38 1171.09 711.38 1111.09 681.38 1211.09 626.38"/>
    <polygon class="cls-43" points="1226.09 596.38 1196.09 606.38 1176.09 441.38 1226.09 596.38"/>
    <polygon class="cls-48" points="1111.09 321.38 1171.09 416.38 1091.09 386.38 1111.09 321.38"/>
    <polygon class="cls-11" points="1261.09 196.38 1276.09 261.38 1111.09 321.38 1261.09 196.38"/>
    <polygon class="cls-32" points="1151.09 801.38 1231.09 836.38 1076.09 891.38 1151.09 801.38"/>
    <polygon class="cls-40" points="1126.09 1.38 1106.09 31.38 1076.09 6.38 1126.09 1.38"/>
    <polygon class="cls-43" points="1151.09 766.38 1151.09 801.38 1061.09 766.38 1151.09 766.38"/>
    <polygon class="cls-49" points="1146.09 736.38 1151.09 766.38 1061.09 766.38 1146.09 736.38"/>
    <polygon class="cls-14" points="1231.09 836.38 1225.09 1081.38 1076.09 891.38 1231.09 836.38"/>
    <polygon class="cls-47" points="1171.09 416.38 1176.09 441.38 1091.09 386.38 1171.09 416.38"/>
    <polygon class="cls-50" points="1091.09 386.38 1176.09 441.38 1056.09 441.38 1091.09 386.38"/>
    <polygon class="cls-12" points="1206.09 131.38 1111.09 321.38 1061.09 181.38 1206.09 131.38"/>
    <polygon class="cls-26" points="1206.09 131.38 1261.09 196.38 1111.09 321.38 1206.09 131.38"/>
    <polygon class="cls-13" points="1106.09 31.38 1206.09 131.38 1051.09 126.38 1106.09 31.38"/>
    <polygon class="cls-17" points="1206.09 131.38 1061.09 181.38 1051.09 126.38 1206.09 131.38"/>
    <polygon class="cls-51" points="1225.09 1081.38 1126.09 1081.38 1076.09 891.38 1225.09 1081.38"/>
    <polygon class="cls-17" points="1151.09 801.38 1076.09 891.38 1046.09 836.38 1151.09 801.38"/>
    <polygon class="cls-50" points="1196.09 606.38 1111.09 681.38 1046.09 596.38 1196.09 606.38"/>
    <polygon class="cls-33" points="1111.09 681.38 1146.09 736.38 1061.09 766.38 1111.09 681.38"/>
    <polygon class="cls-52" points="1111.09 681.38 1051.09 686.38 1041.09 641.38 1111.09 681.38"/>
    <polygon class="cls-36" points="1046.09 596.38 1111.09 681.38 1041.09 641.38 1046.09 596.38"/>
    <polygon class="cls-34" points="1061.09 766.38 1151.09 801.38 1046.09 836.38 1061.09 766.38"/>
    <polygon class="cls-29" points="1176.09 441.38 1196.09 606.38 1036.09 526.38 1176.09 441.38"/>
    <polygon class="cls-53" points="1196.09 606.38 1046.09 596.38 1036.09 526.38 1196.09 606.38"/>
    <polygon class="cls-48" points="1056.09 441.38 1176.09 441.38 1036.09 526.38 1056.09 441.38"/>
    <polygon class="cls-43" points="1111.09 681.38 1061.09 766.38 1051.09 686.38 1111.09 681.38"/>
    <polygon class="cls-54" points="1106.09 31.38 1051.09 126.38 1031.09 71.38 1106.09 31.38"/>
    <polygon class="cls-31" points="1111.09 321.38 1091.09 386.38 1026.09 326.38 1111.09 321.38"/>
    <polygon class="cls-47" points="1076.09 6.38 1106.09 31.38 1031.09 71.38 1076.09 6.38"/>
    <polygon class="cls-55" points="1126.09 1081.38 1026.09 1081.38 1021.09 996.38 1126.09 1081.38"/>
    <polygon class="cls-32" points="1076.09 891.38 1126.09 1081.38 1021.09 996.38 1076.09 891.38"/>
    <polygon class="cls-13" points="1036.09 901.38 1076.09 891.38 1021.09 996.38 1036.09 901.38"/>
    <polygon class="cls-54" points="1076.09 6.38 1031.09 71.38 1026.09 1.38 1076.09 6.38"/>
    <polygon class="cls-56" points="1061.09 766.38 1046.09 836.38 1026.09 776.38 1061.09 766.38"/>
    <polygon class="cls-57" points="1046.09 441.38 1056.09 441.38 1036.09 526.38 1046.09 441.38"/>
    <polygon class="cls-26" points="1046.09 836.38 1076.09 891.38 1036.09 901.38 1046.09 836.38"/>
    <polygon class="cls-34" points="1091.09 386.38 1056.09 441.38 1046.09 441.38 1091.09 386.38"/>
    <polygon class="cls-54" points="1031.09 71.38 1051.09 126.38 1006.09 106.38 1031.09 71.38"/>
    <polygon class="cls-58" points="1006.09 91.38 1031.09 71.38 1006.09 106.38 1006.09 91.38"/>
    <polygon class="cls-59" points="1046.09 596.38 1041.09 641.38 996.09 631.38 1046.09 596.38"/>
    <polygon class="cls-18" points="1061.09 181.38 1111.09 321.38 996.09 261.38 1061.09 181.38"/>
    <polygon class="cls-22" points="1111.09 321.38 1026.09 326.38 996.09 261.38 1111.09 321.38"/>
    <polygon class="cls-29" points="1046.09 836.38 1036.09 901.38 991.09 841.38 1046.09 836.38"/>
    <polygon class="cls-39" points="1051.09 686.38 1061.09 766.38 1026.09 776.38 1051.09 686.38"/>
    <polygon class="cls-41" points="1091.09 386.38 1046.09 441.38 981.09 396.38 1091.09 386.38"/>
    <polygon class="cls-34" points="1026.09 326.38 1091.09 386.38 981.09 396.38 1026.09 326.38"/>
    <polygon class="cls-21" points="1026.09 776.38 1046.09 836.38 991.09 841.38 1026.09 776.38"/>
    <polygon class="cls-47" points="1036.09 901.38 1021.09 996.38 976.09 921.38 1036.09 901.38"/>
    <polygon class="cls-36" points="1041.09 641.38 1051.09 686.38 996.09 631.38 1041.09 641.38"/>
    <polygon class="cls-60" points="1046.09 441.38 1036.09 526.38 986.09 521.38 1046.09 441.38"/>
    <polygon class="cls-61" points="1036.09 526.38 1046.09 596.38 986.09 521.38 1036.09 526.38"/>
    <polygon class="cls-20" points="996.09 261.38 1026.09 326.38 956.09 286.38 996.09 261.38"/>
    <polygon class="cls-50" points="976.09 921.38 1021.09 996.38 956.09 966.38 976.09 921.38"/>
    <polygon class="cls-22" points="991.09 841.38 1036.09 901.38 976.09 921.38 991.09 841.38"/>
    <polygon class="cls-48" points="1051.09 126.38 1061.09 181.38 1006.09 106.38 1051.09 126.38"/>
    <polygon class="cls-62" points="1046.09 441.38 986.09 521.38 951.09 491.38 1046.09 441.38"/>
    <polygon class="cls-63" points="986.09 521.38 966.09 516.38 951.09 491.38 986.09 521.38"/>
    <polygon class="cls-58" points="1006.09 91.38 1006.09 106.38 961.09 121.38 1006.09 91.38"/>
    <polygon class="cls-20" points="1006.09 106.38 1061.09 181.38 961.09 121.38 1006.09 106.38"/>
    <polygon class="cls-31" points="1046.09 596.38 996.09 631.38 986.09 521.38 1046.09 596.38"/>
    <polygon class="cls-29" points="1061.09 181.38 996.09 261.38 936.09 196.38 1061.09 181.38"/>
    <polygon class="cls-23" points="961.09 121.38 1061.09 181.38 936.09 196.38 961.09 121.38"/>
    <polygon class="cls-59" points="981.09 396.38 1046.09 441.38 951.09 491.38 981.09 396.38"/>
    <polygon class="cls-58" points="1026.09 1.38 1031.09 71.38 1006.09 91.38 1026.09 1.38"/>
    <polygon class="cls-25" points="996.09 261.38 956.09 286.38 921.09 226.38 996.09 261.38"/>
    <polygon class="cls-13" points="936.09 196.38 996.09 261.38 921.09 226.38 936.09 196.38"/>
    <polygon class="cls-58" points="1026.09 1.38 1006.09 91.38 921.09 41.38 1026.09 1.38"/>
    <polygon class="cls-33" points="927.09 1.38 1026.09 1.38 921.09 41.38 927.09 1.38"/>
    <polygon class="cls-21" points="1026.09 776.38 991.09 841.38 916.09 786.38 1026.09 776.38"/>
    <polygon class="cls-49" points="1006.09 91.38 961.09 121.38 921.09 41.38 1006.09 91.38"/>
    <polygon class="cls-5" points="1021.09 996.38 1026.09 1081.38 927.09 1081.38 1021.09 996.38"/>
    <polygon class="cls-58" points="1026.09 326.38 981.09 396.38 956.09 286.38 1026.09 326.38"/>
    <polygon class="cls-43" points="921.09 41.38 961.09 121.38 916.09 106.38 921.09 41.38"/>
    <polygon class="cls-23" points="956.09 966.38 1021.09 996.38 927.09 1081.38 956.09 966.38"/>
    <polygon class="cls-64" points="981.09 396.38 951.09 491.38 901.09 426.38 981.09 396.38"/>
    <polygon class="cls-22" points="936.09 196.38 921.09 226.38 901.09 211.38 936.09 196.38"/>
    <polygon class="cls-46" points="986.09 521.38 996.09 631.38 966.09 516.38 986.09 521.38"/>
    <polygon class="cls-41" points="916.09 786.38 991.09 841.38 896.09 841.38 916.09 786.38"/>
    <polygon class="cls-36" points="966.09 516.38 996.09 631.38 891.09 586.38 966.09 516.38"/>
    <polygon class="cls-65" points="996.09 631.38 896.09 636.38 891.09 586.38 996.09 631.38"/>
    <polygon class="cls-17" points="991.09 841.38 976.09 921.38 896.09 841.38 991.09 841.38"/>
    <polygon class="cls-66" points="951.09 491.38 906.09 491.38 901.09 426.38 951.09 491.38"/>
    <polygon class="cls-63" points="951.09 491.38 966.09 516.38 906.09 491.38 951.09 491.38"/>
    <polygon class="cls-43" points="1051.09 686.38 1026.09 776.38 996.09 631.38 1051.09 686.38"/>
    <polygon class="cls-67" points="996.09 631.38 1026.09 776.38 881.09 731.38 996.09 631.38"/>
    <polygon class="cls-59" points="1026.09 776.38 916.09 786.38 881.09 731.38 1026.09 776.38"/>
    <polygon class="cls-32" points="961.09 121.38 936.09 196.38 916.09 106.38 961.09 121.38"/>
    <polygon class="cls-20" points="921.09 226.38 956.09 286.38 876.09 291.38 921.09 226.38"/>
    <polygon class="cls-68" points="896.09 636.38 996.09 631.38 881.09 731.38 896.09 636.38"/>
    <polygon class="cls-69" points="906.09 491.38 966.09 516.38 891.09 586.38 906.09 491.38"/>
    <polygon class="cls-40" points="916.09 106.38 936.09 196.38 861.09 151.38 916.09 106.38"/>
    <polygon class="cls-29" points="936.09 196.38 901.09 211.38 861.09 151.38 936.09 196.38"/>
    <polygon class="cls-36" points="881.09 731.38 916.09 786.38 856.09 771.38 881.09 731.38"/>
    <polygon class="cls-26" points="901.09 211.38 876.09 211.38 861.09 151.38 901.09 211.38"/>
    <polygon class="cls-26" points="876.09 211.38 921.09 226.38 876.09 291.38 876.09 211.38"/>
    <polygon class="cls-52" points="956.09 286.38 981.09 396.38 876.09 291.38 956.09 286.38"/>
    <polygon class="cls-33" points="981.09 396.38 901.09 426.38 876.09 291.38 981.09 396.38"/>
    <polygon class="cls-29" points="901.09 211.38 921.09 226.38 876.09 211.38 901.09 211.38"/>
    <polygon class="cls-33" points="916.09 786.38 896.09 841.38 856.09 771.38 916.09 786.38"/>
    <polygon class="cls-27" points="956.09 966.38 927.09 1081.38 856.09 966.38 956.09 966.38"/>
    <polygon class="cls-39" points="927.09 1.38 921.09 41.38 836.09 31.38 927.09 1.38"/>
    <polygon class="cls-46" points="896.09 636.38 881.09 731.38 836.09 681.38 896.09 636.38"/>
    <polygon class="cls-52" points="876.09 291.38 901.09 426.38 836.09 331.38 876.09 291.38"/>
    <polygon class="cls-66" points="901.09 426.38 906.09 491.38 841.09 436.38 901.09 426.38"/>
    <polygon class="cls-41" points="976.09 921.38 956.09 966.38 856.09 966.38 976.09 921.38"/>
    <polygon class="cls-58" points="896.09 841.38 976.09 921.38 856.09 966.38 896.09 841.38"/>
    <polygon class="cls-62" points="927.09 1.38 836.09 31.38 828.09 1.38 927.09 1.38"/>
    <polygon class="cls-70" points="841.09 436.38 906.09 491.38 826.09 471.38 841.09 436.38"/>
    <polygon class="cls-39" points="856.09 771.38 896.09 841.38 826.09 811.38 856.09 771.38"/>
    <polygon class="cls-39" points="921.09 41.38 916.09 106.38 836.09 31.38 921.09 41.38"/>
    <polygon class="cls-48" points="1126.09 1.38 1076.09 6.38 1026.09 1.38 1126.09 1.38"/>
    <polygon class="cls-49" points="896.09 636.38 836.09 681.38 811.09 646.38 896.09 636.38"/>
    <polygon class="cls-61" points="816.09 996.38 856.09 966.38 811.09 1031.38 816.09 996.38"/>
    <polygon class="cls-36" points="856.09 966.38 927.09 1081.38 811.09 1031.38 856.09 966.38"/>
    <polygon class="cls-30" points="927.09 1081.38 828.09 1081.38 811.09 1031.38 927.09 1081.38"/>
    <polygon class="cls-71" points="901.09 426.38 841.09 436.38 836.09 331.38 901.09 426.38"/>
    <polygon class="cls-48" points="836.09 331.38 841.09 436.38 801.09 366.38 836.09 331.38"/>
    <polygon class="cls-59" points="856.09 966.38 816.09 996.38 811.09 936.38 856.09 966.38"/>
    <polygon class="cls-60" points="896.09 841.38 856.09 966.38 811.09 936.38 896.09 841.38"/>
    <polygon class="cls-46" points="891.09 586.38 896.09 636.38 811.09 646.38 891.09 586.38"/>
    <polygon class="cls-71" points="906.09 491.38 891.09 586.38 826.09 471.38 906.09 491.38"/>
    <polygon class="cls-62" points="916.09 106.38 861.09 151.38 836.09 31.38 916.09 106.38"/>
    <polygon class="cls-46" points="828.09 1.38 836.09 31.38 786.09 26.38 828.09 1.38"/>
    <polygon class="cls-72" points="881.09 731.38 856.09 771.38 836.09 681.38 881.09 731.38"/>
    <polygon class="cls-60" points="836.09 331.38 801.09 366.38 781.09 296.38 836.09 331.38"/>
    <polygon class="cls-56" points="876.09 211.38 876.09 291.38 781.09 296.38 876.09 211.38"/>
    <polygon class="cls-73" points="876.09 291.38 836.09 331.38 781.09 296.38 876.09 291.38"/>
    <polygon class="cls-41" points="826.09 811.38 896.09 841.38 811.09 936.38 826.09 811.38"/>
    <polygon class="cls-72" points="826.09 471.38 891.09 586.38 761.09 556.38 826.09 471.38"/>
    <polygon class="cls-74" points="891.09 586.38 811.09 646.38 761.09 556.38 891.09 586.38"/>
    <polygon class="cls-73" points="781.09 296.38 801.09 366.38 756.09 316.38 781.09 296.38"/>
    <polygon class="cls-75" points="841.09 436.38 826.09 471.38 751.09 451.38 841.09 436.38"/>
    <polygon class="cls-72" points="811.09 936.38 816.09 996.38 741.09 951.38 811.09 936.38"/>
    <polygon class="cls-76" points="801.09 366.38 841.09 436.38 751.09 451.38 801.09 366.38"/>
    <polygon class="cls-67" points="856.09 771.38 826.09 811.38 731.09 761.38 856.09 771.38"/>
    <polygon class="cls-57" points="826.09 811.38 741.09 806.38 731.09 761.38 826.09 811.38"/>
    <polygon class="cls-65" points="756.09 316.38 801.09 366.38 731.09 361.38 756.09 316.38"/>
    <polygon class="cls-49" points="811.09 1031.38 828.09 1081.38 728.09 1081.38 811.09 1031.38"/>
    <polygon class="cls-57" points="836.09 681.38 856.09 771.38 731.09 761.38 836.09 681.38"/>
    <polygon class="cls-59" points="836.09 31.38 861.09 151.38 786.09 26.38 836.09 31.38"/>
    <polygon class="cls-53" points="811.09 646.38 836.09 681.38 721.09 691.38 811.09 646.38"/>
    <polygon class="cls-61" points="828.09 1.38 786.09 26.38 728.09 1.38 828.09 1.38"/>
    <polygon class="cls-77" points="751.09 451.38 761.09 556.38 731.09 536.38 751.09 451.38"/>
    <polygon class="cls-64" points="826.09 471.38 761.09 556.38 751.09 451.38 826.09 471.38"/>
    <polygon class="cls-78" points="836.09 681.38 731.09 761.38 721.09 691.38 836.09 681.38"/>
    <polygon class="cls-46" points="801.09 366.38 751.09 451.38 731.09 361.38 801.09 366.38"/>
    <polygon class="cls-61" points="741.09 806.38 811.09 936.38 711.09 901.38 741.09 806.38"/>
    <polygon class="cls-61" points="716.09 821.38 741.09 806.38 711.09 901.38 716.09 821.38"/>
    <polygon class="cls-79" points="811.09 936.38 741.09 951.38 711.09 901.38 811.09 936.38"/>
    <polygon class="cls-80" points="816.09 996.38 811.09 1031.38 741.09 951.38 816.09 996.38"/>
    <polygon class="cls-33" points="826.09 811.38 811.09 936.38 741.09 806.38 826.09 811.38"/>
    <polygon class="cls-33" points="861.09 151.38 781.09 296.38 691.09 231.38 861.09 151.38"/>
    <polygon class="cls-22" points="861.09 151.38 876.09 211.38 781.09 296.38 861.09 151.38"/>
    <polygon class="cls-81" points="751.09 451.38 731.09 536.38 686.09 511.38 751.09 451.38"/>
    <polygon class="cls-82" points="721.09 691.38 691.09 681.38 681.09 656.38 721.09 691.38"/>
    <polygon class="cls-66" points="761.09 556.38 811.09 646.38 681.09 656.38 761.09 556.38"/>
    <polygon class="cls-83" points="811.09 646.38 721.09 691.38 681.09 656.38 811.09 646.38"/>
    <polygon class="cls-65" points="781.09 296.38 756.09 316.38 691.09 231.38 781.09 296.38"/>
    <polygon class="cls-84" points="731.09 761.38 741.09 806.38 716.09 821.38 731.09 761.38"/>
    <polygon class="cls-79" points="741.09 951.38 811.09 1031.38 728.09 1081.38 741.09 951.38"/>
    <polygon class="cls-85" points="741.09 951.38 728.09 1081.38 666.09 1021.38 741.09 951.38"/>
    <polygon class="cls-86" points="711.09 901.38 741.09 951.38 666.09 921.38 711.09 901.38"/>
    <polygon class="cls-61" points="716.09 821.38 711.09 901.38 666.09 836.38 716.09 821.38"/>
    <polygon class="cls-82" points="666.09 921.38 741.09 951.38 656.09 951.38 666.09 921.38"/>
    <polygon class="cls-87" points="681.09 656.38 691.09 681.38 651.09 666.38 681.09 656.38"/>
    <polygon class="cls-88" points="686.09 511.38 731.09 536.38 651.09 536.38 686.09 511.38"/>
    <polygon class="cls-89" points="731.09 361.38 751.09 451.38 656.09 381.38 731.09 361.38"/>
    <polygon class="cls-90" points="741.09 951.38 666.09 1021.38 656.09 951.38 741.09 951.38"/>
    <polygon class="cls-71" points="731.09 536.38 761.09 556.38 681.09 656.38 731.09 536.38"/>
    <polygon class="cls-47" points="786.09 26.38 861.09 151.38 691.09 231.38 786.09 26.38"/>
    <polygon class="cls-46" points="721.09 691.38 731.09 761.38 691.09 681.38 721.09 691.38"/>
    <polygon class="cls-91" points="731.09 536.38 681.09 656.38 631.09 601.38 731.09 536.38"/>
    <polygon class="cls-80" points="666.09 836.38 711.09 901.38 666.09 921.38 666.09 836.38"/>
    <polygon class="cls-53" points="666.09 1021.38 728.09 1081.38 629.09 1081.38 666.09 1021.38"/>
    <polygon class="cls-92" points="651.09 536.38 731.09 536.38 631.09 601.38 651.09 536.38"/>
    <polygon class="cls-74" points="728.09 1.38 786.09 26.38 621.09 111.38 728.09 1.38"/>
    <polygon class="cls-85" points="786.09 26.38 691.09 231.38 621.09 111.38 786.09 26.38"/>
    <polygon class="cls-93" points="681.09 656.38 651.09 666.38 631.09 601.38 681.09 656.38"/>
    <polygon class="cls-90" points="751.09 451.38 686.09 511.38 656.09 381.38 751.09 451.38"/>
    <polygon class="cls-43" points="731.09 761.38 716.09 821.38 666.09 836.38 731.09 761.38"/>
    <polygon class="cls-66" points="626.09 251.38 656.09 381.38 611.09 261.38 626.09 251.38"/>
    <polygon class="cls-92" points="651.09 536.38 631.09 601.38 611.09 586.38 651.09 536.38"/>
    <polygon class="cls-83" points="629.09 1.38 728.09 1.38 621.09 111.38 629.09 1.38"/>
    <polygon class="cls-63" points="691.09 231.38 731.09 361.38 626.09 251.38 691.09 231.38"/>
    <polygon class="cls-61" points="731.09 361.38 656.09 381.38 626.09 251.38 731.09 361.38"/>
    <polygon class="cls-94" points="756.09 316.38 731.09 361.38 691.09 231.38 756.09 316.38"/>
    <polygon class="cls-83" points="626.09 251.38 611.09 261.38 581.09 221.38 626.09 251.38"/>
    <polygon class="cls-3" points="621.09 111.38 691.09 231.38 611.09 116.38 621.09 111.38"/>
    <polygon class="cls-95" points="691.09 231.38 626.09 251.38 576.09 176.38 691.09 231.38"/>
    <polygon class="cls-95" points="626.09 251.38 581.09 221.38 576.09 176.38 626.09 251.38"/>
    <polygon class="cls-43" points="611.09 116.38 691.09 231.38 576.09 176.38 611.09 116.38"/>
    <polygon class="cls-69" points="629.09 1.38 621.09 111.38 571.09 36.38 629.09 1.38"/>
    <polygon class="cls-66" points="611.09 261.38 656.09 381.38 566.09 336.38 611.09 261.38"/>
    <polygon class="cls-95" points="691.09 681.38 731.09 761.38 666.09 836.38 691.09 681.38"/>
    <polygon class="cls-96" points="561.09 291.38 566.09 336.38 561.09 331.38 561.09 291.38"/>
    <polygon class="cls-96" points="611.09 261.38 566.09 336.38 561.09 291.38 611.09 261.38"/>
    <polygon class="cls-91" points="691.09 681.38 666.09 836.38 566.09 716.38 691.09 681.38"/>
    <polygon class="cls-66" points="651.09 666.38 691.09 681.38 566.09 716.38 651.09 666.38"/>
    <polygon class="cls-71" points="666.09 836.38 666.09 921.38 551.09 906.38 666.09 836.38"/>
    <polygon class="cls-97" points="666.09 921.38 656.09 951.38 551.09 906.38 666.09 921.38"/>
    <polygon class="cls-95" points="581.09 221.38 611.09 261.38 561.09 291.38 581.09 221.38"/>
    <polygon class="cls-70" points="621.09 111.38 611.09 116.38 571.09 36.38 621.09 111.38"/>
    <polygon class="cls-88" points="656.09 381.38 686.09 511.38 651.09 536.38 656.09 381.38"/>
    <polygon class="cls-88" points="629.09 1.38 571.09 36.38 529.09 1.38 629.09 1.38"/>
    <polygon class="cls-90" points="631.09 601.38 651.09 666.38 566.09 716.38 631.09 601.38"/>
    <polygon class="cls-98" points="611.09 586.38 631.09 601.38 566.09 716.38 611.09 586.38"/>
    <polygon class="cls-87" points="656.09 381.38 651.09 536.38 506.09 476.38 656.09 381.38"/>
    <polygon class="cls-99" points="651.09 536.38 611.09 586.38 506.09 476.38 651.09 536.38"/>
    <polygon class="cls-74" points="666.09 1021.38 629.09 1081.38 529.09 1081.38 666.09 1021.38"/>
    <polygon class="cls-92" points="566.09 336.38 656.09 381.38 506.09 476.38 566.09 336.38"/>
    <polygon class="cls-92" points="531.09 726.38 551.09 906.38 486.09 856.38 531.09 726.38"/>
    <polygon class="cls-100" points="551.09 906.38 491.09 916.38 486.09 856.38 551.09 906.38"/>
    <polygon class="cls-57" points="656.09 951.38 666.09 1021.38 529.09 1081.38 656.09 951.38"/>
    <polygon class="cls-101" points="551.09 906.38 656.09 951.38 529.09 1081.38 551.09 906.38"/>
    <polygon class="cls-70" points="566.09 716.38 666.09 836.38 531.09 726.38 566.09 716.38"/>
    <polygon class="cls-91" points="666.09 836.38 551.09 906.38 531.09 726.38 666.09 836.38"/>
    <polygon class="cls-102" points="491.09 916.38 551.09 906.38 471.09 946.38 491.09 916.38"/>
    <polygon class="cls-70" points="581.09 221.38 561.09 291.38 471.09 251.38 581.09 221.38"/>
    <polygon class="cls-95" points="561.09 291.38 561.09 331.38 461.09 291.38 561.09 291.38"/>
    <polygon class="cls-91" points="471.09 251.38 561.09 291.38 461.09 291.38 471.09 251.38"/>
    <polygon class="cls-89" points="529.09 1.38 571.09 36.38 461.09 41.38 529.09 1.38"/>
    <polygon class="cls-87" points="496.09 1.38 529.09 1.38 461.09 41.38 496.09 1.38"/>
    <polygon class="cls-101" points="551.09 906.38 529.09 1081.38 471.09 946.38 551.09 906.38"/>
    <polygon class="cls-103" points="471.09 946.38 529.09 1081.38 456.09 996.38 471.09 946.38"/>
    <polygon class="cls-104" points="456.09 971.38 471.09 946.38 456.09 996.38 456.09 971.38"/>
    <polygon class="cls-105" points="576.09 176.38 581.09 221.38 471.09 251.38 576.09 176.38"/>
    <polygon class="cls-106" points="561.09 331.38 566.09 336.38 446.09 366.38 561.09 331.38"/>
    <polygon class="cls-53" points="611.09 116.38 576.09 176.38 571.09 36.38 611.09 116.38"/>
    <polygon class="cls-43" points="461.09 291.38 561.09 331.38 441.09 341.38 461.09 291.38"/>
    <polygon class="cls-107" points="561.09 331.38 446.09 366.38 441.09 341.38 561.09 331.38"/>
    <polygon class="cls-108" points="471.09 946.38 456.09 971.38 446.09 941.38 471.09 946.38"/>
    <polygon class="cls-109" points="566.09 336.38 506.09 476.38 446.09 366.38 566.09 336.38"/>
    <polygon class="cls-110" points="491.09 916.38 471.09 946.38 446.09 941.38 491.09 916.38"/>
    <polygon class="cls-90" points="456.09 996.38 529.09 1081.38 431.09 1051.38 456.09 996.38"/>
    <polygon class="cls-98" points="571.09 36.38 576.09 176.38 461.09 41.38 571.09 36.38"/>
    <polygon class="cls-111" points="431.09 1051.38 529.09 1081.38 430.09 1081.38 431.09 1051.38"/>
    <polygon class="cls-98" points="496.09 1.38 461.09 41.38 430.09 1.38 496.09 1.38"/>
    <polygon class="cls-88" points="531.09 726.38 486.09 856.38 431.09 746.38 531.09 726.38"/>
    <polygon class="cls-64" points="576.09 176.38 471.09 251.38 436.09 156.38 576.09 176.38"/>
    <polygon class="cls-4" points="461.09 41.38 576.09 176.38 436.09 156.38 461.09 41.38"/>
    <polygon class="cls-91" points="611.09 586.38 566.09 716.38 531.09 726.38 611.09 586.38"/>
    <polygon class="cls-112" points="456.09 971.38 456.09 996.38 416.09 996.38 456.09 971.38"/>
    <polygon class="cls-98" points="611.09 586.38 531.09 726.38 416.09 626.38 611.09 586.38"/>
    <polygon class="cls-112" points="531.09 726.38 416.09 651.38 416.09 626.38 531.09 726.38"/>
    <polygon class="cls-71" points="461.09 291.38 441.09 341.38 416.09 306.38 461.09 291.38"/>
    <polygon class="cls-99" points="431.09 746.38 486.09 856.38 411.09 781.38 431.09 746.38"/>
    <polygon class="cls-29" points="461.09 41.38 436.09 156.38 411.09 121.38 461.09 41.38"/>
    <polygon class="cls-91" points="436.09 156.38 416.09 136.38 411.09 121.38 436.09 156.38"/>
    <polygon class="cls-113" points="486.09 856.38 491.09 916.38 416.09 861.38 486.09 856.38"/>
    <polygon class="cls-114" points="430.09 1.38 461.09 41.38 416.09 11.38 430.09 1.38"/>
    <polygon class="cls-115" points="446.09 941.38 456.09 971.38 406.09 951.38 446.09 941.38"/>
    <polygon class="cls-116" points="491.09 916.38 446.09 941.38 416.09 861.38 491.09 916.38"/>
    <polygon class="cls-109" points="456.09 996.38 431.09 1051.38 416.09 996.38 456.09 996.38"/>
    <polygon class="cls-89" points="506.09 476.38 611.09 586.38 416.09 626.38 506.09 476.38"/>
    <polygon class="cls-117" points="531.09 726.38 431.09 746.38 416.09 651.38 531.09 726.38"/>
    <polygon class="cls-118" points="456.09 971.38 416.09 996.38 406.09 951.38 456.09 971.38"/>
    <polygon class="cls-119" points="486.09 856.38 416.09 861.38 411.09 781.38 486.09 856.38"/>
    <polygon class="cls-86" points="471.09 251.38 461.09 291.38 386.09 261.38 471.09 251.38"/>
    <polygon class="cls-89" points="461.09 291.38 416.09 306.38 386.09 261.38 461.09 291.38"/>
    <polygon class="cls-70" points="416.09 136.38 436.09 156.38 386.09 161.38 416.09 136.38"/>
    <polygon class="cls-120" points="416.09 861.38 446.09 941.38 391.09 876.38 416.09 861.38"/>
    <polygon class="cls-88" points="431.09 746.38 411.09 781.38 376.09 771.38 431.09 746.38"/>
    <polygon class="cls-121" points="446.09 941.38 406.09 951.38 391.09 876.38 446.09 941.38"/>
    <polygon class="cls-122" points="446.09 366.38 506.09 476.38 401.09 491.38 446.09 366.38"/>
    <polygon class="cls-116" points="506.09 476.38 416.09 626.38 401.09 491.38 506.09 476.38"/>
    <polygon class="cls-77" points="436.09 156.38 471.09 251.38 386.09 261.38 436.09 156.38"/>
    <polygon class="cls-123" points="411.09 121.38 416.09 136.38 386.09 161.38 411.09 121.38"/>
    <polygon class="cls-100" points="416.09 651.38 431.09 746.38 361.09 686.38 416.09 651.38"/>
    <polygon class="cls-92" points="386.09 161.38 436.09 156.38 386.09 261.38 386.09 161.38"/>
    <polygon class="cls-98" points="416.09 11.38 461.09 41.38 411.09 121.38 416.09 11.38"/>
    <polygon class="cls-81" points="431.09 746.38 376.09 771.38 356.09 746.38 431.09 746.38"/>
    <polygon class="cls-114" points="361.09 686.38 431.09 746.38 356.09 746.38 361.09 686.38"/>
    <polygon class="cls-102" points="416.09 11.38 411.09 121.38 356.09 51.38 416.09 11.38"/>
    <polygon class="cls-114" points="411.09 121.38 356.09 81.38 356.09 51.38 411.09 121.38"/>
    <polygon class="cls-124" points="446.09 366.38 401.09 491.38 366.09 466.38 446.09 366.38"/>
    <polygon class="cls-125" points="386.09 161.38 386.09 261.38 376.09 166.38 386.09 161.38"/>
    <polygon class="cls-112" points="416.09 11.38 356.09 51.38 330.09 1.38 416.09 11.38"/>
    <polygon class="cls-126" points="431.09 1051.38 430.09 1081.38 330.09 1081.38 431.09 1051.38"/>
    <polygon class="cls-99" points="401.09 491.38 416.09 626.38 331.09 581.38 401.09 491.38"/>
    <polygon class="cls-64" points="386.09 261.38 416.09 306.38 331.09 321.38 386.09 261.38"/>
    <polygon class="cls-98" points="411.09 781.38 416.09 861.38 376.09 771.38 411.09 781.38"/>
    <polygon class="cls-110" points="416.09 996.38 431.09 1051.38 326.09 1031.38 416.09 996.38"/>
    <polygon class="cls-109" points="431.09 1051.38 330.09 1081.38 326.09 1031.38 431.09 1051.38"/>
    <polygon class="cls-66" points="416.09 306.38 441.09 341.38 331.09 321.38 416.09 306.38"/>
    <polygon class="cls-127" points="361.09 686.38 356.09 746.38 346.09 686.38 361.09 686.38"/>
    <polygon class="cls-33" points="411.09 121.38 386.09 161.38 356.09 81.38 411.09 121.38"/>
    <polygon class="cls-70" points="386.09 161.38 376.09 166.38 356.09 81.38 386.09 161.38"/>
    <polygon class="cls-124" points="416.09 626.38 416.09 651.38 361.09 686.38 416.09 626.38"/>
    <polygon class="cls-65" points="416.09 861.38 391.09 876.38 376.09 771.38 416.09 861.38"/>
    <polygon class="cls-128" points="326.09 881.38 406.09 951.38 316.09 961.38 326.09 881.38"/>
    <polygon class="cls-129" points="406.09 951.38 416.09 996.38 316.09 961.38 406.09 951.38"/>
    <polygon class="cls-102" points="416.09 996.38 326.09 1031.38 316.09 961.38 416.09 996.38"/>
    <polygon class="cls-127" points="391.09 876.38 406.09 951.38 326.09 881.38 391.09 876.38"/>
    <polygon class="cls-117" points="430.09 1.38 416.09 11.38 330.09 1.38 430.09 1.38"/>
    <polygon class="cls-120" points="416.09 626.38 361.09 686.38 331.09 581.38 416.09 626.38"/>
    <polygon class="cls-130" points="361.09 686.38 346.09 686.38 331.09 581.38 361.09 686.38"/>
    <polygon class="cls-131" points="441.09 341.38 446.09 366.38 331.09 321.38 441.09 341.38"/>
    <polygon class="cls-132" points="366.09 466.38 331.09 581.38 296.09 496.38 366.09 466.38"/>
    <polygon class="cls-133" points="446.09 366.38 366.09 466.38 296.09 376.38 446.09 366.38"/>
    <polygon class="cls-110" points="331.09 321.38 446.09 366.38 296.09 376.38 331.09 321.38"/>
    <polygon class="cls-134" points="356.09 51.38 356.09 81.38 296.09 76.38 356.09 51.38"/>
    <polygon class="cls-135" points="376.09 771.38 391.09 876.38 326.09 881.38 376.09 771.38"/>
    <polygon class="cls-136" points="366.09 466.38 401.09 491.38 331.09 581.38 366.09 466.38"/>
    <polygon class="cls-137" points="296.09 376.38 366.09 466.38 286.09 421.38 296.09 376.38"/>
    <polygon class="cls-118" points="366.09 466.38 296.09 496.38 286.09 421.38 366.09 466.38"/>
    <polygon class="cls-102" points="330.09 1.38 356.09 51.38 296.09 76.38 330.09 1.38"/>
    <polygon class="cls-36" points="356.09 81.38 376.09 166.38 296.09 76.38 356.09 81.38"/>
    <polygon class="cls-136" points="316.09 961.38 326.09 1031.38 256.09 1006.38 316.09 961.38"/>
    <polygon class="cls-126" points="326.09 881.38 316.09 961.38 261.09 891.38 326.09 881.38"/>
    <polygon class="cls-112" points="346.09 686.38 356.09 746.38 246.09 726.38 346.09 686.38"/>
    <polygon class="cls-138" points="326.09 1031.38 330.09 1081.38 231.09 1081.38 326.09 1031.38"/>
    <polygon class="cls-139" points="256.09 1006.38 326.09 1031.38 231.09 1081.38 256.09 1006.38"/>
    <polygon class="cls-140" points="330.09 1.38 296.09 76.38 231.09 1.38 330.09 1.38"/>
    <polygon class="cls-64" points="296.09 76.38 376.09 166.38 241.09 106.38 296.09 76.38"/>
    <polygon class="cls-112" points="356.09 746.38 376.09 771.38 326.09 881.38 356.09 746.38"/>
    <polygon class="cls-129" points="231.09 1.38 296.09 76.38 221.09 31.38 231.09 1.38"/>
    <polygon class="cls-141" points="296.09 376.38 286.09 421.38 216.09 391.38 296.09 376.38"/>
    <polygon class="cls-111" points="296.09 76.38 241.09 106.38 221.09 31.38 296.09 76.38"/>
    <polygon class="cls-142" points="331.09 581.38 346.09 686.38 206.09 661.38 331.09 581.38"/>
    <polygon class="cls-143" points="346.09 686.38 246.09 726.38 206.09 661.38 346.09 686.38"/>
    <polygon class="cls-144" points="296.09 496.38 331.09 581.38 216.09 516.38 296.09 496.38"/>
    <polygon class="cls-113" points="356.09 746.38 326.09 881.38 246.09 726.38 356.09 746.38"/>
    <polygon class="cls-145" points="261.09 891.38 316.09 961.38 256.09 1006.38 261.09 891.38"/>
    <polygon class="cls-146" points="216.09 516.38 331.09 581.38 201.09 581.38 216.09 516.38"/>
    <polygon class="cls-143" points="241.09 106.38 376.09 166.38 196.09 206.38 241.09 106.38"/>
    <polygon class="cls-98" points="376.09 166.38 386.09 261.38 196.09 206.38 376.09 166.38"/>
    <polygon class="cls-81" points="386.09 261.38 331.09 321.38 196.09 206.38 386.09 261.38"/>
    <polygon class="cls-107" points="246.09 726.38 261.09 891.38 196.09 786.38 246.09 726.38"/>
    <polygon class="cls-134" points="331.09 581.38 206.09 661.38 201.09 581.38 331.09 581.38"/>
    <polygon class="cls-111" points="326.09 881.38 261.09 891.38 246.09 726.38 326.09 881.38"/>
    <polygon class="cls-133" points="246.09 726.38 196.09 786.38 191.09 766.38 246.09 726.38"/>
    <polygon class="cls-147" points="286.09 421.38 296.09 496.38 216.09 516.38 286.09 421.38"/>
    <polygon class="cls-148" points="246.09 726.38 191.09 766.38 186.09 731.38 246.09 726.38"/>
    <polygon class="cls-141" points="201.09 581.38 206.09 661.38 186.09 611.38 201.09 581.38"/>
    <polygon class="cls-118" points="261.09 891.38 256.09 1006.38 206.09 996.38 261.09 891.38"/>
    <polygon class="cls-67" points="196.09 206.38 331.09 321.38 181.09 321.38 196.09 206.38"/>
    <polygon class="cls-149" points="331.09 321.38 296.09 376.38 181.09 321.38 331.09 321.38"/>
    <polygon class="cls-150" points="296.09 376.38 216.09 391.38 181.09 321.38 296.09 376.38"/>
    <polygon class="cls-144" points="206.09 661.38 246.09 726.38 186.09 731.38 206.09 661.38"/>
    <polygon class="cls-146" points="256.09 1006.38 231.09 1081.38 206.09 996.38 256.09 1006.38"/>
    <polygon class="cls-151" points="286.09 421.38 216.09 516.38 216.09 391.38 286.09 421.38"/>
    <polygon class="cls-152" points="181.09 321.38 216.09 391.38 166.09 356.38 181.09 321.38"/>
    <polygon class="cls-111" points="241.09 106.38 196.09 206.38 166.09 151.38 241.09 106.38"/>
    <polygon class="cls-136" points="196.09 206.38 166.09 176.38 166.09 151.38 196.09 206.38"/>
    <polygon class="cls-126" points="201.09 581.38 186.09 611.38 151.09 576.38 201.09 581.38"/>
    <polygon class="cls-153" points="261.09 891.38 206.09 996.38 146.09 896.38 261.09 891.38"/>
    <polygon class="cls-126" points="196.09 786.38 261.09 891.38 146.09 896.38 196.09 786.38"/>
    <polygon class="cls-126" points="216.09 516.38 201.09 581.38 151.09 576.38 216.09 516.38"/>
    <polygon class="cls-136" points="231.09 1.38 221.09 31.38 131.09 1.38 231.09 1.38"/>
    <polygon class="cls-154" points="206.09 996.38 151.09 986.38 146.09 896.38 206.09 996.38"/>
    <polygon class="cls-155" points="206.09 996.38 231.09 1081.38 126.09 1061.38 206.09 996.38"/>
    <polygon class="cls-104" points="231.09 1081.38 131.09 1081.38 126.09 1061.38 231.09 1081.38"/>
    <polygon class="cls-146" points="166.09 151.38 166.09 176.38 121.09 156.38 166.09 151.38"/>
    <polygon class="cls-156" points="151.09 986.38 206.09 996.38 121.09 1021.38 151.09 986.38"/>
    <polygon class="cls-113" points="206.09 996.38 126.09 1061.38 121.09 1021.38 206.09 996.38"/>
    <polygon class="cls-111" points="131.09 1.38 221.09 31.38 116.09 56.38 131.09 1.38"/>
    <polygon class="cls-111" points="216.09 516.38 151.09 576.38 111.09 531.38 216.09 516.38"/>
    <polygon class="cls-140" points="241.09 106.38 166.09 151.38 111.09 96.38 241.09 106.38"/>
    <polygon class="cls-124" points="116.09 56.38 241.09 106.38 111.09 96.38 116.09 56.38"/>
    <polygon class="cls-138" points="221.09 31.38 241.09 106.38 116.09 56.38 221.09 31.38"/>
    <polygon class="cls-157" points="181.09 321.38 166.09 356.38 106.09 301.38 181.09 321.38"/>
    <polygon class="cls-143" points="196.09 206.38 181.09 321.38 106.09 301.38 196.09 206.38"/>
    <polygon class="cls-121" points="166.09 151.38 121.09 156.38 111.09 96.38 166.09 151.38"/>
    <polygon class="cls-133" points="131.09 1.38 116.09 56.38 81.09 6.38 131.09 1.38"/>
    <polygon class="cls-104" points="81.09 6.38 116.09 56.38 66.09 41.38 81.09 6.38"/>
    <polygon class="cls-158" points="216.09 391.38 216.09 516.38 76.09 496.38 216.09 391.38"/>
    <polygon class="cls-113" points="216.09 516.38 111.09 531.38 76.09 496.38 216.09 516.38"/>
    <polygon class="cls-120" points="166.09 176.38 196.09 206.38 106.09 301.38 166.09 176.38"/>
    <polygon class="cls-102" points="121.09 156.38 166.09 176.38 61.09 226.38 121.09 156.38"/>
    <polygon class="cls-144" points="166.09 176.38 106.09 301.38 61.09 226.38 166.09 176.38"/>
    <polygon class="cls-152" points="146.09 896.38 151.09 986.38 61.09 961.38 146.09 896.38"/>
    <polygon class="cls-145" points="151.09 986.38 121.09 1021.38 61.09 961.38 151.09 986.38"/>
    <polygon class="cls-153" points="166.09 356.38 216.09 391.38 76.09 496.38 166.09 356.38"/>
    <polygon class="cls-149" points="151.09 576.38 186.09 611.38 51.09 671.38 151.09 576.38"/>
    <polygon class="cls-141" points="186.09 611.38 206.09 661.38 51.09 671.38 186.09 611.38"/>
    <polygon class="cls-156" points="206.09 661.38 186.09 731.38 51.09 671.38 206.09 661.38"/>
    <polygon class="cls-145" points="111.09 96.38 121.09 156.38 56.09 101.38 111.09 96.38"/>
    <polygon class="cls-159" points="66.09 41.38 111.09 96.38 56.09 101.38 66.09 41.38"/>
    <polygon class="cls-159" points="116.09 56.38 111.09 96.38 66.09 41.38 116.09 56.38"/>
    <polygon class="cls-150" points="126.09 1061.38 131.09 1081.38 32.09 1081.38 126.09 1061.38"/>
    <polygon class="cls-155" points="81.09 6.38 66.09 41.38 32.09 1.38 81.09 6.38"/>
    <polygon class="cls-160" points="106.09 301.38 166.09 356.38 26.09 371.38 106.09 301.38"/>
    <polygon class="cls-128" points="32.09 1.38 66.09 41.38 31.09 36.38 32.09 1.38"/>
    <polygon class="cls-149" points="196.09 786.38 146.09 896.38 21.09 851.38 196.09 786.38"/>
    <polygon class="cls-161" points="166.09 356.38 26.09 451.38 26.09 371.38 166.09 356.38"/>
    <polygon class="cls-162" points="166.09 356.38 76.09 496.38 26.09 451.38 166.09 356.38"/>
    <polygon class="cls-108" points="121.09 1021.38 126.09 1061.38 32.09 1081.38 121.09 1021.38"/>
    <polygon class="cls-163" points="191.09 766.38 196.09 786.38 11.09 796.38 191.09 766.38"/>
    <polygon class="cls-164" points="196.09 786.38 21.09 851.38 11.09 796.38 196.09 786.38"/>
    <polygon class="cls-165" points="146.09 896.38 61.09 961.38 21.09 851.38 146.09 896.38"/>
    <polygon class="cls-104" points="66.09 41.38 56.09 101.38 31.09 36.38 66.09 41.38"/>
    <polygon class="cls-166" points="186.09 731.38 191.09 766.38 11.09 796.38 186.09 731.38"/>
    <polygon class="cls-167" points="51.09 671.38 186.09 731.38 11.09 796.38 51.09 671.38"/>
    <polygon class="cls-168" points="111.09 531.38 151.09 576.38 51.09 671.38 111.09 531.38"/>
    <polygon class="cls-151" points="121.09 156.38 61.09 226.38 56.09 101.38 121.09 156.38"/>
    <polygon class="cls-150" points="131.09 1.38 81.09 6.38 32.09 1.38 131.09 1.38"/>
    <polygon class="cls-155" points="61.09 961.38 121.09 1021.38 32.09 1081.38 61.09 961.38"/>
    <polygon class="cls-155" points="32.09 1.38 31.09 36.38 1.09 1.38 32.09 1.38"/>
    <polygon class="cls-155" points="1.09 1.38 31.09 36.38 1.09 100.38 1.09 1.38"/>
    <polygon class="cls-169" points="31.09 36.38 56.09 101.38 1.09 100.38 31.09 36.38"/>
    <polygon class="cls-160" points="1.09 100.38 56.09 101.38 1.09 199.38 1.09 100.38"/>
    <polygon class="cls-158" points="56.09 101.38 61.09 226.38 1.09 199.38 56.09 101.38"/>
    <polygon class="cls-170" points="106.09 301.38 26.09 371.38 1.09 299.38 106.09 301.38"/>
    <polygon class="cls-149" points="61.09 226.38 106.09 301.38 1.09 299.38 61.09 226.38"/>
    <polygon class="cls-171" points="26.09 371.38 6.09 371.38 1.09 299.38 26.09 371.38"/>
    <polygon class="cls-111" points="1.09 199.38 61.09 226.38 1.09 299.38 1.09 199.38"/>
    <polygon class="cls-172" points="6.09 371.38 26.09 371.38 1.09 398.38 6.09 371.38"/>
    <polygon class="cls-173" points="26.09 371.38 26.09 451.38 1.09 398.38 26.09 371.38"/>
    <polygon class="cls-174" points="1.09 299.38 6.09 371.38 1.09 398.38 1.09 299.38"/>
    <polygon class="cls-141" points="61.09 961.38 32.09 1081.38 1.09 995.38 61.09 961.38"/>
    <polygon class="cls-153" points="111.09 531.38 51.09 671.38 1.09 597.38 111.09 531.38"/>
    <polygon class="cls-175" points="76.09 496.38 111.09 531.38 1.09 597.38 76.09 496.38"/>
    <polygon class="cls-153" points="1.09 597.38 51.09 671.38 1.09 697.38 1.09 597.38"/>
    <polygon class="cls-163" points="51.09 671.38 11.09 796.38 1.09 697.38 51.09 671.38"/>
    <polygon class="cls-176" points="11.09 796.38 21.09 851.38 1.09 796.38 11.09 796.38"/>
    <polygon class="cls-153" points="1.09 697.38 11.09 796.38 1.09 796.38 1.09 697.38"/>
    <polygon class="cls-177" points="61.09 961.38 1.09 995.38 1.09 896.38 61.09 961.38"/>
    <polygon class="cls-176" points="21.09 851.38 61.09 961.38 1.09 896.38 21.09 851.38"/>
    <polygon class="cls-172" points="1.09 796.38 21.09 851.38 1.09 896.38 1.09 796.38"/>
    <polygon class="cls-163" points="1.09 995.38 32.09 1081.38 1.09 1081.38 1.09 995.38"/>
    <polygon class="cls-172" points="76.09 496.38 1.09 597.38 1.09 498.38 76.09 496.38"/>
    <polygon class="cls-178" points="26.09 451.38 76.09 496.38 1.09 498.38 26.09 451.38"/>
    <polygon class="cls-179" points="1.09 398.38 26.09 451.38 1.09 498.38 1.09 398.38"/>
</svg>